<?xml version="1.0" standalone="no"?>
<!DOCTYPE svg PUBLIC "-//W3C//DTD SVG 20010904//EN"
 "http://www.w3.org/TR/2001/REC-SVG-20010904/DTD/svg10.dtd">
<svg version="1.0" xmlns="http://www.w3.org/2000/svg"
 width="14.000000pt" height="14.000000pt" viewBox="0 0 24.000000 24.000000"
 preserveAspectRatio="xMidYMid meet">

<g transform="scale(0.1)"
fill="none" stroke="#B3B3B3" stroke-width="10" stroke-linecap="round" stroke-linejoin="round">
<path d="M187 97 V90 C187 51 157 20 120 20 C83 20 53 51 53 90 V97 C53 106 50 114 46 121 L35 138 C24 154 32 175 50 180 C96 193 144 193 190 180 C208 175 216 154 205 138 L194 121 C190 114 187 106 187 97 Z M75 190 C82 207 99 220 120 220 C141 220 158 207 165 190"/>
</g>
</svg>