<svg width="32" height="32" viewBox="0 0 49 50" fill="none" xmlns="http://www.w3.org/2000/svg">
  <path fill-rule="evenodd" clip-rule="evenodd" d="M11.145 28.8412V47.4026C11.145 48.3213 10.4307 49.0677 9.44862 49.0677H2.48473C1.59188 49.0677 0.877686 48.3213 0.877686 47.4026V2.59453C0.877686 1.67583 1.59188 0.930298 2.48473 0.930298H9.44862C10.4307 0.930298 11.145 1.67583 11.145 2.59453V21.156L45.0717 1.55967C45.8752 1.0981 46.8573 1.0981 47.6608 1.55967C48.4643 2.02125 49 2.87386 49 3.79706C49 13.5179 49 36.4791 49 46.2009C49 47.1232 48.4643 47.9758 47.6608 48.4374C46.8573 48.899 45.8752 48.899 45.0717 48.4383L11.145 28.8412Z" fill="#B3B3B3"/>
</svg>